<?xml version="1.0" encoding="UTF-8"?>
<!DOCTYPE svg PUBLIC "-//W3C//DTD SVG 1.1//EN" "http://www.w3.org/Graphics/SVG/1.1/DTD/svg11.dtd">
<!-- Creator: CorelDRAW 2020 (64-Bit) -->
<svg xmlns="http://www.w3.org/2000/svg" xml:space="preserve" width="1.82788in" height="0.597417in" version="1.1" style="shape-rendering:geometricPrecision; text-rendering:geometricPrecision; image-rendering:optimizeQuality; fill-rule:evenodd; clip-rule:evenodd"
viewBox="0 0 2482.81 811.47"
 xmlns:xlink="http://www.w3.org/1999/xlink"
 xmlns:xodm="http://www.corel.com/coreldraw/odm/2003">
 <defs>
  <style type="text/css">
   <![CDATA[
    .fil0 {fill:#003399}
    .fil1 {fill:#FF6600}
   ]]>
  </style>
 </defs>
 <g id="Layer_x0020_1">
  <metadata id="CorelCorpID_0Corel-Layer"/>
  <path class="fil0" d="M25.53 365.71c28.05,-40.39 95.79,-22.93 80.13,18.33 -7.29,19.21 -21.95,10.91 -30.31,20.73 27.08,15.71 63.05,-29.52 38.85,-61.71 -16.93,-22.52 -60.19,-20.4 -86.13,0.93 -52,42.73 -28.99,121.08 46.33,134.01 35.34,6.06 72.1,-4.93 98.98,-22.16 57.65,-36.95 85.1,-108.05 84.61,-174.29 -0.18,-24.67 -7.86,-77.83 -17.06,-95.38l-28.86 12.26c7.21,25.55 14.7,43.45 16.9,74.41 1.95,27.38 -1.09,64.83 -10.52,91.71 -16.99,48.44 -58.6,86.03 -113.73,93.3 -73.26,9.66 -105.85,-53.75 -79.19,-92.13l0.01 -0.01z"/>
  <path class="fil0" d="M131.69 140.22c6.26,-1.09 29.74,-9.34 46.37,-12.64 7.95,-1.58 16.32,-3.14 24.53,-4.06 9.5,-1.06 20.78,0.74 20.62,-10.12 -7.81,-7.28 -13.93,-6.66 -26.21,-4.57 -17.14,2.91 -32.1,9.16 -46.68,16.96l-15.04 8.59c-2.72,1.57 -3.3,1.61 -3.6,5.84l0 -0.01z"/>
  <path class="fil0" d="M174.51 144.79c0.52,11.21 9.01,21.09 15.44,26.04 26.54,20.43 52.02,7.12 41.41,-20.33 -2.81,-7.3 -11.81,-21.57 -19.67,-23.43 0.56,4.81 6.55,10.05 10.04,20.74 5.44,16.68 -10.03,30.13 -30.84,12.37 -2.7,-2.3 -5.21,-5.22 -7.62,-7.64 -2.92,-2.93 -4.28,-6.73 -8.76,-7.75z"/>
  <path class="fil0" d="M117.04 129.51c12.1,-6.54 23.12,-12.89 37.51,-18.47 6.97,-2.7 12.88,-4.78 20.64,-6.74 8.28,-2.1 17.03,-1.46 17.59,-11.6 -11.63,-11.28 -31.8,0.8 -42.97,7.7 -10.73,6.63 -26.16,17.33 -32.77,29.12l-0.01 -0.01z"/>
  <path class="fil0" d="M134.61 65.19c-6.71,12.92 4.64,36.1 18.82,25.7 12.56,-9.2 -7.97,-26.94 -18.82,-25.7z"/>
  <path class="fil0" d="M215.19 162.57c4.82,-13.44 -17.43,-32.64 -23.41,-28.27 -5.14,3.75 5.03,16.64 6.31,18.29 3.03,3.91 9.53,11.34 17.1,9.98l-0.01 0z"/>
  <path class="fil1" d="M40.03 3.37c4.58,6.19 2.11,5.95 22.98,7.21 29.75,1.8 55.08,8.59 82.42,19.55 236.38,94.79 202.46,450.15 -49.52,499.61 -34.77,6.82 -48.48,0.32 -56.05,11.44 25.39,8.41 117.19,-0.02 192.96,82.72 20.35,22.21 39.67,48.31 54.33,83.98 6.66,16.2 11.8,33.75 15.12,52.24 11.3,62.97 -26.15,50.32 108.24,50.32 11.98,0 16.21,2.49 16.21,-10.14 0,-130.44 -95.21,-231.79 -218.69,-260.51 326.31,-150.73 261.23,-493.23 -9.99,-535.45 -20.22,-3.14 -147.09,-7.42 -158.01,-0.96l0 0z"/>
  <path class="fil0" d="M192.12 265.24c10.12,-41.23 -36.72,-58.35 -75.92,-58.2 0.87,0.7 1.16,0.97 2.83,1.87 1.25,0.67 1.51,0.77 2.93,1.35 1.61,0.66 3.88,1.36 5.93,2.09 65.8,23.31 53.25,48.42 64.24,52.9l0 0.01z"/>
  <path class="fil0" d="M149.03 239.1l1.14 3.26c0.66,1.79 0.27,1.23 1.16,3.02 0.97,1.97 2.8,3.99 4.26,5.08 4.33,3.21 8.73,3.43 15.12,2.12 1.37,4.2 2.35,7.6 6.54,10.4 6.46,-11.89 -10.09,-23.76 -19.32,-26.97 -15.2,-5.3 -24.01,-3.09 -38.17,-11.25 4.84,9.3 16.71,10.97 29.26,14.35l0 0z"/>
  <path class="fil0" d="M650.89 639.49c108.15,-142.13 -63.88,-289.07 -101.34,-394.36 -24.8,-69.69 -6.27,-107.7 43.03,-161.44l-14.15 4.82c-106.99,35.36 -166.16,93.19 -123.64,214.75 7.42,21.19 18.86,44.66 27.55,63.05 50.18,89.7 137.77,199.5 94.29,298.2 -21.76,49.41 -57.11,66.23 -66.64,79.66 44.72,-14.85 113.47,-68.64 140.89,-104.67l0.01 -0.01z"/>
  <path class="fil0" d="M1031.34 366.4l-79.23 -118.84c50.87,-5.42 69.22,-33.78 69.22,-77.56l0 -2.92c0,-46.71 -24.21,-75.47 -89.65,-75.47l-113 0 0 274.78 26.68 0 0 -117.58 76.72 0 77.56 117.58 31.69 0zm-99.24 -251.85c47.54,0 61.72,23.37 61.72,53.79l0 2.5c0,31.24 -13.37,55.87 -61.72,55.87l-86.73 0 0 -112.16 86.73 0zm165.54 5.42c10.84,0 15.43,-5.83 15.43,-15.85 0,-10.01 -4.59,-15.43 -15.43,-15.43 -10.43,0 -15.85,5.42 -15.85,15.43 0,10.01 5.42,15.85 15.85,15.85zm12.51 246.43l0 -196.81 -25.02 0 0 196.81 25.02 0zm201.39 -162.2c-11.67,-22.94 -33.35,-38.78 -66.29,-38.78 -48.37,0 -77.14,31.72 -77.14,86.73l0 31.27c0,55.01 28.77,87.15 76.72,87.15 37.94,0 60.88,-20.43 70.88,-47.95l0 43.78 20.85 0 0 -282.7 -25.02 0 0 120.5zm-59.63 145.52c-34.61,0 -57.96,-22.51 -57.96,-66.29l0 -31.27c0,-44.2 23.35,-66.3 57.96,-66.3 37.11,0 59.63,27.13 59.63,62.96l0 38.36c0,35.42 -22.51,62.55 -59.63,62.55zm246.01 -184.3c-36.27,0 -59.21,17.1 -70.05,41.7l0 -123.42 -25.44 0 0 282.7 25.44 0 0 -120.5c0,-32.94 21.26,-60.04 60.88,-60.04 37.11,0 56.71,22.13 56.71,58.37l0 122.17 25.02 0 0 -126.34c0,-46.71 -25.02,-74.64 -72.56,-74.64zm154.28 -45.45c10.84,0 15.43,-5.83 15.43,-15.85 0,-10.01 -4.59,-15.43 -15.43,-15.43 -10.42,0 -15.85,5.42 -15.85,15.43 0,10.01 5.42,15.85 15.85,15.85zm12.51 246.43l0 -196.81 -25.02 0 0 196.81 25.02 0zm-751.38 374.24c71.72,0 110.91,-23.77 110.91,-77.56l0 -1.67c-0.41,-48.78 -35.86,-67.55 -85.06,-73.8l-45.03 -5.84c-44.2,-6.25 -68.8,-17.93 -68.8,-52.95l0 -1.25c0,-32.52 26.68,-47.54 80.89,-47.54 54.21,0 82.56,21.68 82.98,61.71l0 1.67 25.43 0 0 -2.09c0,-51.71 -35.03,-83.4 -108,-83.4 -72.55,0 -108,24.6 -108,70.05l0 1.25c0,51.28 35.03,69.63 91.32,76.72l42.53 5.42c38.78,5.42 64.63,17.51 65.46,51.71l0 1.25c0,38.78 -30.85,54.21 -84.64,54.21 -60.88,0 -93.4,-24.19 -93.4,-68.39l0 -1.67 -25.44 0 0 1.67c0,55.04 36.28,90.48 118.84,90.48zm175.96 -250.18c10.84,0 15.43,-5.83 15.43,-15.85 0,-10.01 -4.59,-15.42 -15.43,-15.42 -10.42,0 -15.85,5.42 -15.85,15.42 0,10.01 5.42,15.85 15.85,15.85zm12.51 246.43l0 -196.81 -25.02 0 0 196.81 25.02 0zm201.39 -162.2c-11.67,-22.94 -33.36,-38.78 -66.3,-38.78 -48.37,0 -77.14,31.69 -77.14,86.73l0 31.27c0,55.04 28.77,87.15 76.72,87.15 37.95,0 60.88,-20.43 70.88,-47.95l0 43.78 20.85 0 0 -282.7 -25.02 0 0 120.5zm-59.63 145.52c-34.61,0 -57.96,-22.51 -57.96,-66.29l0 -31.27c0,-44.2 23.35,-66.3 57.96,-66.3 37.11,0 59.63,27.1 59.63,62.96l0 38.36c0,35.44 -22.52,62.55 -59.63,62.55zm246.01 -184.3c-36.28,0 -59.21,17.1 -70.05,41.7l0 -123.42 -25.43 0 0 282.7 25.43 0 0 -120.5c0,-32.94 21.27,-60.04 60.88,-60.04 37.11,0 56.7,22.1 56.7,58.37l0 122.17 25.02 0 0 -126.34c0,-46.71 -25.02,-74.64 -72.55,-74.64zm154.28 -45.45c10.84,0 15.42,-5.83 15.42,-15.85 0,-10.01 -4.58,-15.42 -15.42,-15.42 -10.43,0 -15.85,5.42 -15.85,15.42 0,10.01 5.42,15.85 15.85,15.85zm12.51 246.43l0 -196.81 -25.02 0 0 196.81 25.02 0zm168.87 3.75c71.71,0 110.91,-23.77 110.91,-77.56l0 -1.67c-0.42,-48.78 -35.86,-67.55 -85.06,-73.8l-45.03 -5.84c-44.2,-6.25 -68.8,-17.93 -68.8,-52.95l0 -1.25c0,-32.52 26.69,-47.54 80.89,-47.54 54.2,0 82.56,21.68 82.97,61.71l0 1.67 25.44 0 0 -2.09c0,-51.71 -35.03,-83.4 -108,-83.4 -72.55,0 -108,24.6 -108,70.05l0 1.25c0,51.28 35.02,69.63 91.32,76.72l42.53 5.42c38.78,5.42 64.63,17.51 65.47,51.71l0 1.25c0,38.78 -30.86,54.21 -84.64,54.21 -60.88,0 -93.41,-24.19 -93.41,-68.39l0 -1.67 -25.43 0 0 1.67c0,55.04 36.28,90.48 118.84,90.48zm238.5 0c60.46,0 89.65,-35.44 89.65,-84.64l0 -35.03c0,-49.2 -29.19,-85.06 -89.65,-84.64 -59.63,0 -88.81,35.44 -88.81,84.64l0 35.03c0,49.2 29.18,84.64 88.81,84.64zm0 -20.43c-41.28,0 -62.96,-26.68 -62.96,-62.96l0 -37.53c0,-36.7 21.26,-62.96 62.96,-62.96 42.53,0 63.8,26.27 63.8,62.96l0 37.53c0,36.27 -21.68,62.96 -63.8,62.96zm280.2 -243.51l0 -22.51 -40.86 0c-57.54,0 -75.47,27.52 -75.47,77.14l0 8.75 -43.37 0 0 20.02 43.37 0 0 176.79 25.85 0 0 -176.79 79.23 0 0 -20.02 -79.23 0 0 -8.75c0,-35.44 12.51,-54.63 52.96,-54.63l37.52 0zm105.91 238.93c-33.35,0 -42.53,-16.68 -42.53,-44.62l0 -110.92 69.64 0 0 -20.02 -69.64 0 0 -48.37 -25.02 0 0 48.37 -37.53 0 0 20.02 37.53 0 0 113.41c0,39.62 14.18,63.38 60.88,63.38l39.61 0 0 -21.26 -32.94 0z"/>
 </g>
</svg>
