<?xml version="1.0" encoding="UTF-8"?>
<!DOCTYPE svg PUBLIC "-//W3C//DTD SVG 1.1//EN" "http://www.w3.org/Graphics/SVG/1.1/DTD/svg11.dtd">
<!-- Creator: CorelDRAW 2020 (64-Bit) -->
<svg xmlns="http://www.w3.org/2000/svg" xml:space="preserve" width="0.505122in" height="0.597417in" version="1.1" style="shape-rendering:geometricPrecision; text-rendering:geometricPrecision; image-rendering:optimizeQuality; fill-rule:evenodd; clip-rule:evenodd"
viewBox="0 0 189.6 224.25"
 xmlns:xlink="http://www.w3.org/1999/xlink"
 xmlns:xodm="http://www.corel.com/coreldraw/odm/2003">
 <defs>
  <style type="text/css">
   <![CDATA[
    .fil0 {fill:#003399}
    .fil1 {fill:#FF6600}
   ]]>
  </style>
 </defs>
 <g id="Layer_x0020_1">
  <metadata id="CorelCorpID_0Corel-Layer"/>
  <path class="fil0" d="M7.05 101.06c7.75,-11.16 26.47,-6.34 22.14,5.07 -2.02,5.31 -6.07,3.01 -8.38,5.73 7.48,4.34 17.42,-8.16 10.74,-17.05 -4.68,-6.22 -16.63,-5.64 -23.8,0.26 -14.37,11.81 -8.01,33.46 12.8,37.03 9.77,1.68 19.92,-1.36 27.35,-6.12 15.93,-10.21 23.52,-29.86 23.38,-48.16 -0.05,-6.82 -2.17,-21.51 -4.72,-26.36l-7.97 3.39c1.99,7.06 4.06,12.01 4.67,20.56 0.54,7.57 -0.3,17.92 -2.91,25.34 -4.7,13.39 -16.19,23.77 -31.43,25.78 -20.25,2.67 -29.25,-14.85 -21.88,-25.46l0 -0z"/>
  <path class="fil0" d="M36.39 38.75c1.73,-0.3 8.22,-2.58 12.82,-3.49 2.2,-0.44 4.51,-0.87 6.78,-1.12 2.63,-0.29 5.74,0.2 5.7,-2.8 -2.16,-2.01 -3.85,-1.84 -7.24,-1.26 -4.74,0.81 -8.87,2.53 -12.9,4.69l-4.16 2.37c-0.75,0.43 -0.91,0.45 -0.99,1.61l0 -0z"/>
  <path class="fil0" d="M48.22 40.01c0.14,3.1 2.49,5.83 4.27,7.2 7.33,5.65 14.37,1.97 11.44,-5.62 -0.78,-2.02 -3.26,-5.96 -5.44,-6.47 0.15,1.33 1.81,2.78 2.77,5.73 1.5,4.61 -2.77,8.33 -8.52,3.42 -0.74,-0.64 -1.44,-1.44 -2.1,-2.11 -0.81,-0.81 -1.18,-1.86 -2.42,-2.14z"/>
  <path class="fil0" d="M32.34 35.79c3.34,-1.81 6.39,-3.56 10.37,-5.1 1.93,-0.74 3.56,-1.32 5.7,-1.86 2.29,-0.58 4.71,-0.4 4.86,-3.21 -3.21,-3.12 -8.79,0.22 -11.87,2.13 -2.97,1.83 -7.23,4.79 -9.05,8.05l-0 -0z"/>
  <path class="fil0" d="M37.2 18.02c-1.85,3.57 1.28,9.98 5.2,7.1 3.47,-2.54 -2.2,-7.45 -5.2,-7.1z"/>
  <path class="fil0" d="M59.47 44.93c1.33,-3.71 -4.82,-9.02 -6.47,-7.81 -1.42,1.04 1.39,4.6 1.74,5.06 0.84,1.08 2.63,3.13 4.73,2.76l-0 0z"/>
  <path class="fil1" d="M11.06 0.93c1.26,1.71 0.58,1.64 6.35,1.99 8.22,0.5 15.22,2.37 22.78,5.4 65.32,26.2 55.95,124.4 -13.69,138.06 -9.61,1.89 -13.4,0.09 -15.49,3.16 7.02,2.32 32.39,-0 53.32,22.86 5.62,6.14 10.96,13.35 15.01,23.21 1.84,4.48 3.26,9.33 4.18,14.44 3.12,17.4 -7.23,13.9 29.91,13.9 3.31,0 4.48,0.69 4.48,-2.8 0,-36.05 -26.31,-64.05 -60.43,-71.99 90.17,-41.65 72.19,-136.3 -2.76,-147.97 -5.59,-0.87 -40.65,-2.05 -43.66,-0.26l0 0z"/>
  <path class="fil0" d="M53.09 73.3c2.8,-11.39 -10.15,-16.12 -20.98,-16.08 0.24,0.19 0.32,0.27 0.78,0.52 0.35,0.18 0.42,0.21 0.81,0.37 0.44,0.18 1.07,0.38 1.64,0.58 18.18,6.44 14.71,13.38 17.75,14.62l0 0z"/>
  <path class="fil0" d="M41.18 66.07l0.32 0.9c0.18,0.49 0.08,0.34 0.32,0.83 0.27,0.55 0.77,1.1 1.18,1.4 1.2,0.89 2.41,0.95 4.18,0.59 0.38,1.16 0.65,2.1 1.81,2.87 1.79,-3.29 -2.79,-6.57 -5.34,-7.45 -4.2,-1.46 -6.63,-0.85 -10.55,-3.11 1.34,2.57 4.62,3.03 8.08,3.97l0 0z"/>
  <path class="fil0" d="M179.87 176.72c29.89,-39.28 -17.65,-79.88 -28,-108.98 -6.85,-19.26 -1.73,-29.76 11.89,-44.61l-3.91 1.33c-29.57,9.77 -45.92,25.75 -34.17,59.34 2.05,5.86 5.21,12.34 7.61,17.42 13.87,24.79 38.07,55.13 26.06,82.4 -6.01,13.65 -15.78,18.3 -18.42,22.01 12.36,-4.1 31.36,-18.97 38.94,-28.93l0 -0z"/>
 </g>
</svg>
